# xmcd
#
# Track frame offsets: 
#        150
#        8943
#        30327
#        48935
#        67569
#        87962
#        110801
#        145909
#        167583
#        185744
#        202273
#        219638
#        236328
#        262795
#        297806
#
# Disc length: 4499 seconds
#
# Revision: 0
# Processed by: cddbd v1.5.2PL0 Copyright (c) Steve Scherf et al.
# Submitted via: ExactAudioCopyFreeDBPlugin 1.0
#
DISCID=ce11910f
DTITLE=Corvus Corax - Ars Mystica selectio 1989-2016
DYEAR=2016
DGENRE=Medieval
TTITLE0=Unbekannter Künstler - Impressiones
TTITLE1=Unbekannter Künstler - Lá ì mBealtaine
TTITLE2=Unbekannter Künstler - Mille Anni Passi Sunt
TTITLE3=Unbekannter Künstler - Corvus Corax Trioculi [Game of Thrones 
TTITLE3=Theme]
TTITLE4=Unbekannter Künstler - Sverker
TTITLE5=Unbekannter Künstler - Cheiron
TTITLE6=Unbekannter Künstler - Hymnus Apollon
TTITLE7=Unbekannter Künstler - Qui Nous Demaine
TTITLE8=Unbekannter Künstler - Unicornis
TTITLE9=Unbekannter Künstler - Die Klage
TTITLE10=Unbekannter Künstler - Ballade de Mercy
TTITLE11=Unbekannter Künstler - Is Nomine Vacans [Gothic 3]
TTITLE12=Unbekannter Künstler - O Varium Fortune
TTITLE13=Unbekannter Künstler - Ergo Bibamus
TTITLE14=Unbekannter Künstler - Palästinalied
EXTD=
EXTT0=
EXTT1=
EXTT2=
EXTT3=
EXTT4=
EXTT5=
EXTT6=
EXTT7=
EXTT8=
EXTT9=
EXTT10=
EXTT11=
EXTT12=
EXTT13=
EXTT14=
PLAYORDER=
